HIERARCHY
ROOT pelvis
{
	OFFSET 0.00 0.00 0.00
	CHANNELS 6 Xposition Yposition Zposition Xrotation Yrotation Zrotation
	JOINT lfemur
	{
		OFFSET 0.00 4.06 0.00
		CHANNELS 3 Xrotation Yrotation Zrotation
		JOINT ltibia
		{
			OFFSET 0.00 0.00 -16.01
			CHANNELS 3 Xrotation Yrotation Zrotation
			JOINT lfoot
			{
				OFFSET 0.00 0.00 -15.75
				CHANNELS 3 Xrotation Yrotation Zrotation
				JOINT ltoes
				{
					OFFSET 3.98 0.00 -1.33
					CHANNELS 3 Xrotation Yrotation Zrotation
				}
			}
		}
	}
	JOINT rfemur
	{
		OFFSET 0.00 -4.06 0.00
		CHANNELS 3 Xrotation Yrotation Zrotation
		JOINT rtibia
		{
			OFFSET 0.00 0.00 -16.02
			CHANNELS 3 Xrotation Yrotation Zrotation
			JOINT rfoot
			{
				OFFSET 0.00 0.00 -14.97
				CHANNELS 3 Xrotation Yrotation Zrotation
				JOINT rtoes
				{
					OFFSET 3.59 0.00 -1.84
					CHANNELS 3 Xrotation Yrotation Zrotation
				}
			}
		}
	}
	JOINT lowerback
	{
		OFFSET -1.97 0.00 3.64
		CHANNELS 3 Xrotation Yrotation Zrotation
		JOINT upperback
		{
			OFFSET 1.10 0.00 5.68
			CHANNELS 3 Xrotation Yrotation Zrotation
			JOINT lclavicle
			{
				OFFSET 0.00 0.00 8.27
				CHANNELS 3 Xrotation Yrotation Zrotation
				JOINT lhumerus
				{
					OFFSET 0.00 5.45 -0.49
					CHANNELS 3 Xrotation Yrotation Zrotation
					JOINT lradius
					{
						OFFSET 0.00 0.00 -10.58
						CHANNELS 3 Xrotation Yrotation Zrotation
						JOINT lhand
						{
							OFFSET 0.00 0.00 -8.38
							CHANNELS 3 Xrotation Yrotation Zrotation
						}
					}
				}
			}
			JOINT rclavicle
			{
				OFFSET 0.00 0.00 8.27
				CHANNELS 3 Xrotation Yrotation Zrotation
				JOINT rhumerus
				{
					OFFSET 0.00 -5.70 -0.50
					CHANNELS 3 Xrotation Yrotation Zrotation
					JOINT rradius
					{
						OFFSET 0.00 0.00 -10.60
						CHANNELS 3 Xrotation Yrotation Zrotation
						JOINT rhand
						{
							OFFSET 0.00 0.00 -8.76
							CHANNELS 3 Xrotation Yrotation Zrotation
						}
					}
				}
			}
			JOINT LowerNeck
			{
				OFFSET 0.00 0.00 8.27
				CHANNELS 3 Xrotation Yrotation Zrotation
				JOINT Neck
				{
					OFFSET -1.62 0.11 3.13
					CHANNELS 3 Xrotation Yrotation Zrotation
				}
			}
		}
	}
}
MOTION
Frames: 29
Frame Time: 0.008333
0.60	-46.93	33.53	7.36	6.07	-113.77	15.11	-24.22	17.88	0.00	34.41	-14.01	0.38	-13.33	1.47	0.00	-20.82	0.00	0.20	-9.28	-31.90	0.00	20.91	9.07	-3.88	-23.76	-14.94	-0.00	-1.59	-0.00	3.52	5.21	-0.07	-13.31	3.58	5.74	-11.60	0.00	14.31	46.19	-0.57	-16.55	-0.00	-14.09	-20.80	-0.56	-15.14	0.00	-16.75	0.00	-17.76	-142.21	9.45	-57.76	0.00	-17.66	-41.78	-25.65	-41.91	-0.00	-38.54	0.20	5.02	1.48	-32.93	-63.13	
0.59	-47.08	33.03	6.67	6.74	-114.63	15.52	-26.03	16.28	0.00	38.06	-12.48	0.65	-19.13	2.50	-0.00	-17.87	-0.00	-0.22	-10.32	-33.45	0.00	24.83	10.98	-4.41	-29.22	-16.69	0.00	-0.56	0.00	4.14	6.92	-0.48	-12.13	2.80	5.43	-10.62	0.00	13.61	43.66	1.34	-17.45	0.00	-13.36	-19.67	0.79	-14.78	-0.00	-17.27	-0.00	-16.70	-139.65	10.84	-59.80	0.00	-22.21	-41.70	-29.71	-42.61	-0.00	-36.26	2.00	5.48	-2.64	-35.77	-64.53	
0.60	-47.27	32.56	6.06	7.58	-115.35	16.28	-28.15	15.26	0.00	41.72	-11.63	0.91	-23.81	3.49	0.00	-15.85	0.00	-0.54	-11.87	-34.49	0.00	29.12	10.65	-4.51	-33.70	-16.66	-0.00	0.01	-0.00	4.90	8.48	-0.98	-11.01	1.97	5.40	-9.34	0.00	12.73	40.72	3.23	-18.31	-0.00	-12.57	-18.43	2.38	-14.12	-0.00	-17.98	0.00	-15.43	-136.59	12.15	-62.35	0.00	-26.97	-40.64	-33.46	-42.49	-0.00	-33.69	4.37	5.87	-7.63	-39.14	-66.57	
0.60	-47.53	32.12	6.45	9.27	-115.62	17.78	-31.64	14.84	0.00	45.40	-10.62	1.11	-27.64	4.20	0.00	-14.31	0.00	-0.30	-15.24	-34.20	0.00	33.66	8.61	-4.43	-36.84	-16.01	0.00	0.36	0.00	6.05	8.81	-1.23	-10.17	1.01	5.42	-7.91	0.00	11.86	37.62	5.00	-18.99	0.00	-11.57	-17.16	3.94	-13.73	-0.00	-18.45	0.00	-13.57	-133.51	13.83	-63.81	0.00	-31.85	-40.59	-36.94	-42.73	-0.00	-31.62	7.13	6.42	-12.18	-42.83	-69.14	
0.61	-47.80	31.76	6.97	10.03	-115.58	17.98	-34.36	13.85	0.00	48.30	-9.21	1.25	-30.45	4.65	0.00	-13.07	-0.00	-1.20	-18.67	-33.79	0.00	38.77	5.43	-3.99	-38.76	-14.18	-0.00	-0.21	-0.00	6.41	9.54	-1.48	-9.73	0.40	5.52	-6.51	0.00	11.94	34.55	5.55	-20.21	0.00	-10.39	-15.91	5.49	-13.11	-0.00	-18.18	0.00	-12.93	-130.13	14.33	-68.23	0.00	-36.78	-37.88	-39.38	-41.20	-0.00	-29.20	7.14	6.63	-16.11	-43.83	-70.67	
0.62	-48.09	31.43	8.24	11.02	-115.17	18.25	-37.76	13.06	0.00	51.10	-7.97	1.44	-32.39	5.32	0.00	-12.50	-0.00	-2.13	-23.06	-33.17	0.00	43.95	4.49	-4.21	-39.68	-14.89	0.00	-0.53	-0.00	6.62	9.12	-1.25	-9.42	-0.02	4.88	-5.28	0.00	11.96	31.70	6.66	-21.08	-0.00	-9.56	-14.57	6.60	-12.41	-0.00	-17.64	0.00	-10.92	-126.94	15.59	-69.95	0.00	-41.81	-37.47	-42.76	-41.07	-0.00	-28.25	7.49	7.69	-17.63	-45.30	-71.85	
0.62	-48.31	31.18	8.70	11.37	-114.73	18.04	-39.78	11.89	0.00	53.45	-6.83	1.58	-33.75	5.80	0.00	-12.04	-0.00	-3.14	-26.08	-32.65	0.00	48.41	3.56	-4.29	-39.73	-15.18	0.00	-0.92	0.00	6.58	9.78	-1.28	-9.29	-0.08	4.41	-4.39	0.00	13.16	29.32	6.47	-22.20	0.00	-8.74	-14.20	7.04	-11.60	-0.00	-16.49	0.00	-10.43	-123.59	15.05	-74.22	0.00	-46.61	-34.92	-45.08	-40.06	-0.00	-26.96	5.20	8.15	-17.73	-44.49	-71.11	
0.62	-48.50	30.95	8.88	11.59	-114.35	17.74	-41.45	10.68	0.00	55.72	-6.09	1.85	-34.55	6.76	0.00	-11.83	-0.00	-4.05	-28.56	-32.29	0.00	52.38	3.79	-4.61	-39.22	-16.37	-0.00	-1.52	-0.00	6.48	10.40	-1.14	-9.17	0.05	3.62	-3.50	0.00	13.98	27.20	6.91	-23.50	-0.00	-8.79	-12.99	6.34	-10.80	0.00	-15.33	0.00	-9.37	-120.08	14.64	-76.86	0.00	-51.73	-33.15	-47.52	-38.85	-0.00	-26.03	3.72	9.13	-17.65	-44.41	-70.97	
0.62	-48.65	30.75	8.80	11.69	-113.90	17.72	-42.58	10.02	0.00	57.76	-5.64	1.99	-35.16	7.24	0.00	-11.91	0.00	-4.89	-30.47	-32.20	0.00	55.92	3.65	-4.64	-38.28	-16.61	-0.00	-2.46	-0.00	6.38	11.08	-0.99	-9.13	0.30	2.98	-2.69	0.00	14.66	25.31	7.23	-23.85	0.00	-8.79	-12.74	4.45	-10.16	0.00	-14.26	-0.00	-8.26	-116.60	14.00	-78.62	0.00	-56.54	-32.01	-49.70	-38.59	-0.00	-25.07	2.61	9.71	-17.34	-44.60	-70.44	
0.61	-48.79	30.56	8.64	11.73	-113.41	17.70	-43.53	9.53	0.00	59.72	-5.07	2.11	-35.63	7.63	0.00	-11.98	0.00	-5.63	-32.10	-32.01	0.00	58.98	3.13	-4.48	-37.37	-16.15	0.00	-3.17	-0.00	6.32	11.72	-0.67	-9.19	0.61	2.42	-1.87	0.00	15.19	23.58	7.41	-24.57	-0.00	-8.83	-12.35	2.24	-9.93	0.00	-13.27	0.00	-7.31	-113.17	13.00	-79.84	0.00	-61.04	-30.51	-51.21	-37.92	-0.00	-23.76	2.07	10.47	-18.19	-44.90	-70.68	
0.60	-48.92	30.39	8.42	11.74	-112.93	17.75	-44.25	9.27	0.00	61.44	-4.49	2.18	-36.09	7.89	0.00	-11.96	-0.00	-6.31	-33.45	-31.90	0.00	61.64	2.55	-4.23	-36.41	-15.33	0.00	-3.64	0.00	6.28	12.25	-0.31	-9.21	0.96	2.00	-1.17	0.00	15.51	22.12	7.54	-25.17	0.00	-8.88	-12.32	-1.04	-10.03	0.00	-12.33	0.00	-6.34	-109.93	11.91	-80.39	0.00	-65.20	-28.98	-52.51	-37.34	-0.00	-22.67	2.06	11.39	-19.49	-45.40	-71.55	
0.59	-49.03	30.23	8.16	11.75	-112.47	17.87	-44.78	9.17	0.00	62.95	-4.06	2.22	-36.62	7.99	0.00	-11.86	-0.00	-6.84	-34.52	-31.67	0.00	63.85	1.99	-3.97	-35.66	-14.44	0.00	-4.03	0.00	6.22	12.66	0.02	-9.11	1.33	1.72	-0.61	-0.00	15.74	20.88	7.57	-25.66	0.00	-8.86	-11.99	-4.57	-10.83	-0.00	-11.44	0.00	-5.41	-106.98	10.77	-80.26	0.00	-68.90	-27.99	-53.21	-37.37	-0.00	-21.92	2.32	12.42	-20.94	-45.89	-72.83	
0.58	-49.13	30.07	7.90	11.76	-112.12	17.91	-45.26	8.98	0.00	64.31	-3.56	2.25	-37.08	8.06	-0.00	-11.90	-0.00	-7.36	-35.43	-31.51	0.00	65.79	1.62	-3.72	-34.99	-13.61	-0.00	-4.26	-0.00	6.17	13.01	0.38	-8.95	1.64	1.48	-0.09	0.00	15.86	19.84	7.56	-26.37	0.00	-9.02	-11.50	-8.42	-11.59	-0.00	-10.67	0.00	-4.56	-104.12	9.59	-79.74	0.00	-72.18	-26.75	-53.68	-37.22	-0.00	-21.18	2.87	13.08	-22.32	-46.55	-73.85	
0.57	-49.22	29.93	7.68	11.77	-111.81	17.86	-45.73	8.75	0.00	65.56	-3.00	2.25	-37.53	8.04	0.00	-11.87	0.00	-7.83	-36.20	-31.31	0.00	67.41	1.42	-3.53	-34.60	-12.94	-0.00	-4.43	0.00	6.13	13.27	0.74	-8.77	1.85	1.31	0.41	0.00	15.76	18.94	7.63	-26.94	0.00	-9.26	-10.89	-12.01	-12.13	-0.00	-10.04	-0.00	-3.68	-101.24	8.46	-78.83	0.00	-75.20	-25.30	-53.99	-36.87	-0.00	-20.63	3.78	13.50	-23.58	-47.43	-74.85	
0.55	-49.30	29.78	7.49	11.76	-111.59	17.73	-46.15	8.42	0.00	66.66	-2.40	2.22	-38.00	7.93	0.00	-11.90	0.00	-8.23	-36.76	-31.13	0.00	68.68	1.54	-3.46	-34.54	-12.69	0.00	-4.46	0.00	6.10	13.43	1.09	-8.56	2.00	1.22	0.80	0.00	15.43	18.28	7.73	-27.31	0.00	-9.64	-10.19	-15.28	-12.44	-0.00	-9.35	0.00	-2.95	-98.60	7.38	-77.49	-0.00	-77.81	-24.18	-54.32	-36.80	-0.00	-20.47	4.65	13.92	-24.25	-48.20	-75.71	
0.53	-49.36	29.65	7.36	11.75	-111.42	17.48	-46.56	7.96	0.00	67.62	-1.76	2.19	-38.46	7.76	0.00	-11.87	0.00	-8.54	-37.16	-30.96	0.00	69.63	1.93	-3.51	-34.83	-12.83	-0.00	-4.38	-0.00	6.09	13.51	1.42	-8.38	2.02	1.18	1.04	0.00	14.87	17.85	7.96	-27.24	0.00	-10.20	-9.43	-17.91	-12.19	-0.00	-8.65	-0.00	-2.26	-96.04	6.36	-75.85	0.00	-80.19	-23.17	-54.70	-36.73	-0.00	-20.57	5.70	14.16	-24.53	-49.09	-76.41	
0.51	-49.42	29.52	7.29	11.73	-111.29	17.11	-46.96	7.38	0.00	68.46	-1.15	2.16	-38.94	7.63	-0.00	-11.81	-0.00	-8.78	-37.39	-30.82	0.00	70.26	2.48	-3.65	-35.49	-13.31	-0.00	-4.18	-0.00	6.10	13.49	1.75	-8.21	1.95	1.15	1.11	0.00	14.15	17.68	8.27	-26.77	-0.00	-10.90	-8.65	-19.83	-11.40	-0.00	-7.85	0.00	-1.61	-93.65	5.44	-73.91	0.00	-82.29	-22.48	-55.14	-36.82	-0.00	-20.89	6.79	14.36	-24.51	-50.01	-76.98	
0.49	-49.47	29.40	7.28	11.69	-111.21	16.64	-47.34	6.73	0.00	69.18	-0.59	2.16	-39.41	7.60	0.00	-11.64	-0.00	-8.99	-37.49	-30.76	0.00	70.61	2.92	-3.83	-36.46	-13.85	0.00	-3.84	0.00	6.10	13.40	2.09	-8.06	1.76	1.10	1.02	0.00	13.26	17.71	8.66	-25.95	-0.00	-11.70	-7.95	-20.90	-10.19	-0.00	-6.96	0.00	-0.97	-91.44	4.71	-71.67	0.00	-84.18	-21.79	-55.82	-36.60	-0.00	-21.30	8.13	14.49	-24.51	-51.17	-77.54	
0.46	-49.50	29.29	7.30	11.64	-111.15	16.14	-47.66	6.11	0.00	69.79	-0.15	2.19	-39.92	7.68	0.00	-11.49	0.00	-9.11	-37.43	-30.76	0.00	70.70	3.25	-4.04	-37.77	-14.50	-0.00	-3.45	-0.00	6.10	13.22	2.42	-7.93	1.60	1.01	0.86	-0.00	12.44	17.91	9.02	-25.06	-0.00	-12.55	-7.42	-21.34	-8.89	-0.00	-5.93	0.00	-0.39	-89.40	4.08	-69.18	0.00	-85.78	-21.80	-56.08	-37.03	-0.00	-21.67	9.35	14.72	-24.67	-52.14	-78.15	
0.44	-49.52	29.20	7.33	11.57	-111.11	15.62	-47.94	5.52	0.00	70.35	0.25	2.25	-40.43	7.85	0.00	-11.37	-0.00	-9.18	-37.24	-30.85	0.00	70.60	3.26	-4.21	-39.21	-14.94	-0.00	-3.01	-0.00	6.10	13.03	2.73	-7.80	1.39	0.89	0.60	0.00	11.72	18.22	9.31	-24.14	0.00	-13.37	-7.42	-20.92	-7.79	-0.00	-4.81	-0.00	0.14	-87.55	3.52	-66.56	0.00	-87.14	-21.52	-56.35	-37.16	-0.00	-22.02	10.50	14.90	-24.87	-53.10	-78.59	
0.42	-49.53	29.10	7.35	11.49	-111.08	15.10	-48.16	4.98	0.00	70.83	0.55	2.33	-40.90	8.10	0.00	-11.33	0.00	-9.20	-36.94	-31.00	0.00	70.31	2.92	-4.33	-40.77	-15.16	-0.00	-2.57	-0.00	6.08	12.80	2.97	-7.69	1.24	0.75	0.31	0.00	11.16	18.63	9.47	-23.29	-0.00	-14.12	-7.71	-20.04	-7.01	-0.00	-3.63	-0.00	0.58	-85.77	2.93	-63.91	0.00	-88.27	-21.57	-55.87	-37.81	-0.00	-22.30	11.40	15.13	-25.05	-53.87	-78.89	
0.40	-49.55	29.02	7.38	11.39	-111.08	14.50	-48.33	4.39	0.00	71.21	0.91	2.39	-41.31	8.30	0.00	-11.05	-0.00	-9.27	-36.57	-31.30	0.00	69.90	2.22	-4.35	-42.30	-15.05	0.00	-1.98	0.00	6.03	12.63	3.19	-7.53	0.97	0.55	-0.06	0.00	10.58	19.07	9.61	-22.30	-0.00	-14.79	-8.45	-18.61	-6.62	-0.00	-2.48	0.00	0.99	-84.02	2.38	-61.25	0.00	-89.25	-20.93	-55.41	-37.80	-0.00	-22.68	12.50	15.31	-25.33	-54.99	-79.26	
0.38	-49.56	28.94	7.40	11.27	-111.05	13.98	-48.45	3.93	0.00	71.52	1.18	2.46	-41.62	8.50	0.00	-11.05	0.00	-9.30	-36.16	-31.62	0.00	69.38	1.11	-4.28	-43.77	-14.59	0.00	-1.41	0.00	5.96	12.43	3.32	-7.39	0.80	0.37	-0.45	-0.00	10.17	19.56	9.57	-21.43	-0.00	-15.31	-9.22	-16.99	-6.60	-0.00	-1.36	0.00	1.28	-82.17	1.65	-58.67	0.00	-90.00	-20.59	-54.24	-38.67	-0.00	-22.93	13.18	15.40	-25.29	-55.83	-79.13	
0.36	-49.57	28.89	7.43	11.14	-111.00	13.46	-48.51	3.46	0.00	71.74	1.46	2.50	-41.86	8.63	0.00	-10.96	0.00	-9.36	-35.74	-32.01	0.00	68.81	-0.16	-4.14	-45.09	-13.91	-0.00	-0.82	0.00	5.89	12.27	3.43	-7.23	0.59	0.17	-0.87	0.00	9.77	20.07	9.47	-20.58	0.00	-15.72	-10.05	-15.02	-6.85	-0.00	-0.33	0.00	1.54	-80.19	0.97	-56.15	180.00	-89.38	160.15	-53.16	-39.39	-0.00	-23.25	13.80	15.47	-25.15	-56.70	-78.89	
0.35	-49.58	28.84	7.44	11.00	-110.92	12.99	-48.50	3.06	0.00	71.88	1.70	2.53	-42.03	8.73	0.00	-10.89	0.00	-9.41	-35.32	-32.38	0.00	68.21	-1.50	-3.94	-46.22	-13.09	0.00	-0.28	-0.00	5.81	12.14	3.49	-7.08	0.39	-0.01	-1.29	-0.00	9.38	20.57	9.29	-19.83	-0.00	-16.02	-10.79	-12.76	-7.28	-0.00	0.59	0.00	1.81	-78.06	0.39	-53.65	180.00	-88.89	160.98	-52.24	-40.22	-0.00	-23.58	14.19	15.60	-24.88	-57.34	-78.55	
0.33	-49.60	28.78	7.34	10.70	-110.80	12.37	-48.24	2.63	0.00	71.88	1.90	2.58	-42.09	8.88	-0.00	-10.79	0.00	-9.58	-34.78	-32.67	0.00	67.65	-2.67	-3.75	-47.16	-12.32	0.00	0.29	-0.00	5.58	12.22	3.45	-6.82	-0.00	-0.17	-1.77	0.00	8.82	21.04	9.32	-19.02	0.00	-16.30	-11.56	-10.19	-7.81	-0.00	1.33	0.00	2.36	-75.79	0.17	-51.11	180.00	-88.49	161.94	-51.75	-40.88	-0.00	-24.21	14.70	16.11	-24.82	-57.98	-78.68	
0.31	-49.60	28.74	7.34	10.60	-110.60	12.19	-48.11	2.55	0.00	71.90	2.01	2.59	-42.19	8.92	0.00	-10.81	-0.00	-9.51	-34.46	-32.77	0.00	67.08	-3.83	-3.52	-47.83	-11.47	0.00	0.58	-0.00	5.54	12.01	3.45	-6.77	0.01	-0.21	-2.00	0.00	8.64	21.41	8.75	-18.85	0.00	-16.32	-11.83	-7.53	-8.27	-0.00	2.18	0.00	2.47	-73.60	-0.23	-48.47	180.00	-88.31	162.33	-51.71	-41.70	-0.00	-24.19	14.26	16.23	-24.19	-57.78	-77.76	
0.30	-49.61	28.71	7.28	10.48	-110.38	12.03	-47.88	2.51	0.00	71.84	2.11	2.62	-42.19	9.03	0.00	-10.86	-0.00	-9.42	-34.17	-32.70	0.00	66.58	-4.57	-3.39	-48.21	-10.99	0.00	0.92	0.00	5.52	11.87	3.45	-6.66	-0.04	-0.35	-2.27	-0.00	8.43	21.76	8.27	-18.64	-0.00	-16.35	-12.20	-4.70	-8.72	-0.00	2.89	-0.00	2.73	-71.37	-0.43	-45.70	180.00	-88.22	162.54	-51.86	-42.12	-0.00	-24.38	13.87	16.52	-23.70	-57.64	-77.14	
0.28	-49.61	28.65	7.05	10.25	-110.10	11.86	-47.32	2.53	0.00	71.61	2.10	2.67	-42.18	9.20	0.00	-10.82	-0.00	-9.27	-33.73	-32.30	0.00	66.13	-5.15	-3.24	-48.33	-10.48	-0.00	1.08	0.00	5.42	12.04	3.34	-6.48	-0.29	-0.38	-2.52	0.00	8.15	22.07	7.90	-18.45	-0.00	-16.40	-12.41	-1.76	-9.18	-0.00	3.57	-0.00	3.08	-69.27	-0.44	-42.76	180.00	-88.29	162.88	-52.61	-41.62	-0.00	-24.74	13.73	17.00	-23.43	-57.70	-76.87	
